<svg width="512" height="512" xmlns="http://www.w3.org/2000/svg">
 <!-- Created with UXWing SVG Editor - https://uxwing.com/svg-icon-editor/ -->

 <g>
  <title>background</title>
  <rect fill="none" id="canvas_background" height="514" width="514" y="-1" x="-1"/>
  <g display="none" overflow="visible" y="0" x="0" height="100%" width="100%" id="canvasGrid">
   <rect fill="url(#gridpattern)" stroke-width="0" y="0" x="0" height="100%" width="100%"/>
  </g>
 </g>
 <g>
  <title>Layer 1</title>
  <g stroke="null" id="svg_14">
   <g stroke="null" transform="matrix(3.345027859316958,0,0,3.345027859316958,-91.68822819687031,-89.51677321895508) " id="svg_12">
    <path fill="#0fff0f" stroke="null" id="svg_13" d="m103.941802,41.853137c33.932,0 61.44,27.508 61.44,61.44c0,33.932 -27.508,61.439 -61.44,61.439c-33.933,0.001 -61.44,-27.507 -61.44,-61.439c0,-33.932 27.507,-61.44 61.44,-61.44l0,0zm-27.182,63.075c0.824,-4.78 6.28,-7.44 10.584,-4.851c0.39,0.233 0.763,0.51 1.11,0.827l0.034,0.032c1.932,1.852 4.096,3.778 6.242,5.688l1.841,1.652l21.84,-22.91c1.304,-1.366 2.259,-2.25 4.216,-2.689c6.701,-1.478 11.412,6.712 6.663,11.719l-27.223,28.565c-2.564,2.735 -7.147,2.985 -9.901,0.373c-1.581,-1.466 -3.297,-2.958 -5.034,-4.467c-3.007,-2.613 -6.077,-5.28 -8.577,-7.919c-1.502,-1.5 -2.15,-3.956 -1.795,-6.02l0,0z" clip-rule="evenodd" fill-rule="evenodd"/>
   </g>
  </g>
 </g>
</svg>