<svg xmlns="http://www.w3.org/2000/svg" width="512" height="512"><g><title>background</title><rect id="canvas_background" width="514" height="514" x="-1" y="-1" fill="none"/><g id="canvasGrid" width="100%" height="100%" x="0" y="0" display="none"><rect width="100%" height="100%" x="0" y="0" fill="url(#gridpattern)" stroke-width="0"/></g></g><g><title>Layer 1</title><g id="svg_7" stroke="null"><g id="svg_5" stroke="null" transform="matrix(3.1491677682008676,0,0,3.1491677682008676,-0.00007155592898272674,-86.94428316224003)"><path id="svg_6" fill="#fff" fill-rule="evenodd" stroke="null" d="m111.551024,52.757971c6.927,-7.034 18.188,-7.065 25.154,-0.068c6.961,6.995 6.991,18.369 0.068,25.397l-30.393,30.827l30.425,30.855c6.866,6.978 6.773,18.28 -0.208,25.247c-6.983,6.964 -18.21,6.946 -25.074,-0.031l-30.217,-30.642l-30.274,30.699c-6.927,7.034 -18.188,7.065 -25.154,0.068c-6.961,-6.995 -6.992,-18.369 -0.068,-25.397l30.393,-30.827l-30.424,-30.856c-6.867,-6.978 -6.773,-18.28 0.208,-25.247c6.983,-6.963 18.21,-6.946 25.074,0.031l30.217,30.643l30.273,-30.699l0,0z" clip-rule="evenodd"/></g></g></g></svg>