<svg xmlns="http://www.w3.org/2000/svg" width="512" height="512"><g><title>background</title><rect id="canvas_background" width="514" height="514" x="-1" y="-1" fill="none"/><g id="canvasGrid" width="100%" height="100%" x="0" y="0" display="none"><rect width="100%" height="100%" x="0" y="0" fill="url(#gridpattern)" stroke-width="0"/></g></g><g><title>Layer 1</title><g id="svg_7" stroke="null"><g id="svg_5" stroke="null" transform="matrix(3.0929532991951962,0,0,3.0929532991951962,-76.42851979375547,-74.68138742995271)"><path id="svg_6" fill="#fff" fill-rule="evenodd" stroke="null" d="m155.034822,92.669449c7.683,-0.059 13.898,6.12 13.882,13.805c-0.018,7.683 -6.26,13.959 -13.942,14.019l-33.693,0.235l-0.235,33.73c-0.063,7.619 -6.338,13.789 -14.014,13.78c-7.678,-0.01 -13.848,-6.197 -13.785,-13.818l0.233,-33.497l-33.558,0.235c-7.681,0.06 -13.897,-6.12 -13.881,-13.804c0.018,-7.683 6.261,-13.959 13.943,-14.018l33.692,-0.236l0.236,-33.73c0.064,-7.619 6.338,-13.789 14.014,-13.78c7.678,0.009 13.848,6.197 13.784,13.818l-0.233,33.497l33.557,-0.236l0,0z" clip-rule="evenodd"/></g></g></g></svg>