<svg width="512" height="512" xmlns="http://www.w3.org/2000/svg">
 <!-- Created with UXWing SVG Editor - https://uxwing.com/svg-icon-editor/ -->

 <g>
  <title>background</title>
  <rect fill="none" id="canvas_background" height="514" width="514" y="-1" x="-1"/>
  <g display="none" overflow="visible" y="0" x="0" height="100%" width="100%" id="canvasGrid">
   <rect fill="url(#gridpattern)" stroke-width="0" y="0" x="0" height="100%" width="100%"/>
  </g>
 </g>
 <g>
  <title>Layer 1</title>
  <g stroke="null" id="svg_21">
   <g stroke="null" transform="matrix(3.2963199020670335,0,0,3.2963199020670335,-5.179336612806537,-92.52702057029094) " id="svg_19">
    <path fill="#ffffff" stroke="null" id="svg_20" d="m123.992561,68.601272c1.78,2.21 3.43,4.55 5.06,7.46c5.99,10.64 8.52,22.73 7.49,34.54c-1.01,11.54 -5.43,22.83 -13.37,32.27c-2.85,3.39 -5.91,6.38 -9.13,8.97c-11.11,8.93 -24.28,13.34 -37.41,13.22c-13.13,-0.13 -26.21,-4.78 -37.14,-13.98c-3.19,-2.68 -6.18,-5.73 -8.91,-9.13c-6.41,-7.96 -10.53,-17.29 -12.08,-27.14c-1.53,-9.67 -0.59,-19.83 3.07,-29.66c3.49,-9.35 8.82,-17.68 15.78,-24.21c6.62,-6.21 14.73,-10.78 24.12,-13.06c2.94,-0.71 5.94,-1.18 8.99,-1.37c3.06,-0.2 6.19,-0.13 9.4,0.22c2.01,0.22 3.46,2.03 3.24,4.04c-0.22,2.01 -2.03,3.46 -4.04,3.24c-2.78,-0.31 -5.49,-0.37 -8.14,-0.2c-2.65,0.17 -5.23,0.57 -7.73,1.17c-8.11,1.96 -15.1,5.91 -20.84,11.29c-6.13,5.76 -10.84,13.13 -13.94,21.43c-3.21,8.61 -4.04,17.51 -2.7,25.96c1.36,8.59 4.96,16.74 10.55,23.7c2.47,3.07 5.12,5.78 7.91,8.13c9.59,8.07 21.03,12.15 32.5,12.26c11.47,0.11 23,-3.76 32.76,-11.61c2.9,-2.33 5.62,-4.98 8.13,-7.97c6.92,-8.22 10.77,-18.09 11.66,-28.2c0.91,-10.37 -1.32,-20.99 -6.57,-30.33c-1.59,-2.82 -3.21,-5.07 -5.01,-7.24l-0.53,14.7c-0.07,2.02 -1.76,3.6 -3.78,3.52c-2.02,-0.07 -3.6,-1.76 -3.52,-3.78l0.85,-23.42c0.07,-2.02 1.76,-3.6 3.78,-3.52c0.13,0 0.25,0.02 0.37,0.03l0,0l22.7,3.19c2,0.28 3.4,2.12 3.12,4.13c-0.28,2 -2.12,3.4 -4.13,3.12l-12.51,-1.77l0,0z"/>
   </g>
  </g>
 </g>
</svg>