<svg xmlns="http://www.w3.org/2000/svg" width="512" height="512"><g><title>background</title><rect id="canvas_background" width="514" height="514" x="-1" y="-1" fill="none"/><g id="canvasGrid" width="100%" height="100%" x="0" y="0" display="none"><rect width="100%" height="100%" x="0" y="0" fill="url(#gridpattern)" stroke-width="0"/></g></g><g><title>Layer 1</title><g id="svg_36" stroke="null"><g id="svg_34" stroke="null" transform="matrix(3.7581790749013613,0,0,3.7581790749013613,-50.643085811153426,-43.245785913474485)"><path id="svg_35" fill="#fff" stroke="null" d="m104.848523,67.286009l-5.94,0l0,56.09l5.94,0l0,-56.09l0,0l0,0zm-71.34,-40.04l32.16,0l0,-2.86c0,-0.1 0,-0.19 0.01,-0.29c0.13,-2.85 2.22,-5.25 5.01,-5.79c0.73,-0.14 1.4,-0.12 2.14,-0.12l18.52,0c0.25,0 0.49,-0.01 0.73,0.02c1.58,0.08 3.02,0.76 4.06,1.81c1.03,1.03 1.69,2.43 1.79,3.98c0.01,0.18 0.02,0.37 0.02,0.55l0,2.7l32.5,0c0.44,0 0.75,0.01 1.19,0.08c2.21,0.36 3.88,2.13 4.07,4.37c0.02,0.24 0.03,0.47 0.03,0.71l0,10.54c0,1.47 -1.19,2.66 -2.67,2.66l-102.95,0c-1.48,0.01 -2.67,-1.19 -2.67,-2.66l0,-0.06l0,-9.91c0,-4.15 2.04,-5.73 6.06,-5.73l0,0zm52.01,40.04l-5.95,0l0,56.09l5.95,0l0,-56.09l0,0l0,0zm-19.33,0l-5.94,0l0,56.09l5.95,0l0,-56.09l-0.01,0l0,0zm-28,-17.53l87.09,0c0.36,0.02 0.66,0.04 1.03,0.1c1.25,0.21 2.4,0.81 3.27,1.66c1.01,1 1.67,2.34 1.7,3.83c0,0.31 -0.03,0.63 -0.06,0.95l-7.33,78.66c-0.1,1.03 -0.27,1.95 -0.79,2.92c-1.01,1.88 -2.88,3.19 -5.2,3.19l-72.05,0c-0.55,0 -1.05,0 -1.59,-0.08c-0.22,-0.03 -0.43,-0.08 -0.64,-0.14c-0.31,-0.09 -0.62,-0.21 -0.91,-0.35c-0.27,-0.13 -0.52,-0.27 -0.78,-0.45c-1.51,-1.04 -2.51,-2.78 -2.69,-4.72l-7.29,-79.26c-0.02,-0.25 -0.04,-0.52 -0.04,-0.77c0.05,-1.48 0.7,-2.8 1.7,-3.79c0.88,-0.86 2.06,-1.47 3.33,-1.67c0.41,-0.06 0.85,-0.08 1.25,-0.08l0,0zm87.01,5.33l-87.15,0c-0.57,0 -0.84,0.1 -0.79,0.7l7.27,79.05l0,0l0,0.01c0.03,0.38 0.2,0.69 0.45,0.83l0,0l0.08,0.03l0.06,0.01l0.08,0l72.69,0c0.6,0 0.67,-0.84 0.71,-1.28l7.34,-78.71c0.04,-0.5 -0.26,-0.64 -0.74,-0.64l0,0z"/></g></g></g></svg>